<mxfile host="app.diagrams.net" modified="2023-05-18T02:43:52.892Z" agent="Mozilla/5.0 (X11; Linux x86_64) AppleWebKit/537.36 (KHTML, like Gecko) Chrome/112.0.0.0 Safari/537.36 Edg/112.0.1722.48" version="21.3.2" etag="XWk3chpwngv1deaNuKPB" type="github">
  <diagram name="第 1 页" id="_Bcq1nb1a4YBcVPF2YxU">
    <mxGraphModel>
      <root>
        <mxCell id="0" />
        <mxCell id="1" parent="0" />
      </root>
    </mxGraphModel>
  </diagram>
</mxfile>
